# xmcd
#
# Track frame offsets:
#	150
#	15582
#	34037
#	47812
#	66430
#	76705
#	89587
#	100142
#	111582
#	125695
#
# Disc length: 1877 seconds
#
# Revision: 0
# Processed by: cddbd v1.5.1PL0 Copyright (c) Steve Scherf et al.
# Submitted via: dBpowerAMP V4.0
#
DISCID=8307530a
DTITLE=Ike and Tina Turner - The Hits of 
DYEAR=1900
DGENRE=Blues
TTITLE0=Living for the city
TTITLE1=Philadelphia freedom
TTITLE2=Twist and shout
TTITLE3=Sugar sugar
TTITLE4=Locomotion
TTITLE5=I wanna take you higher
TTITLE6=Good good loving
TTITLE7=Ain't that a shame
TTITLE8=Mississippi rolling stone
TTITLE9=Give me a chance
EXTD=
EXTT0=
EXTT1=
EXTT2=
EXTT3=
EXTT4=
EXTT5=
EXTT6=
EXTT7=
EXTT8=
EXTT9=
PLAYORDER=
